<svg width="320" height="220" viewBox="0 0 320 220" fill="none" xmlns="http://www.w3.org/2000/svg">
  <defs>
    <linearGradient id="sunsetGradient" x1="0" y1="0" x2="320" y2="220" gradientUnits="userSpaceOnUse">
      <stop stop-color="#ff9a44"/>
      <stop offset="0.5" stop-color="#ff5e62"/>
      <stop offset="1" stop-color="#845ec2"/>
    </linearGradient>
    <linearGradient id="pathGradient" x1="60" y1="130" x2="260" y2="220" gradientUnits="userSpaceOnUse">
      <stop stop-color="#ffe0b5"/>
      <stop offset="1" stop-color="#f7c27e"/>
    </linearGradient>
  </defs>
  <rect width="320" height="220" rx="28" fill="url(#sunsetGradient)"/>
  <path d="M0 150C40 120 80 120 120 150C160 180 200 180 240 150C280 120 320 120 320 150V220H0Z" fill="#2c2a63" opacity="0.65"/>
  <path d="M50 220C80 180 130 160 170 170C210 180 250 210 270 220H50Z" fill="url(#pathGradient)" opacity="0.9"/>
  <g fill="#fef7ff" opacity="0.8">
    <rect x="46" y="92" width="22" height="44" rx="4"/>
    <rect x="76" y="78" width="24" height="58" rx="4"/>
    <rect x="108" y="62" width="26" height="74" rx="4"/>
    <rect x="146" y="84" width="28" height="52" rx="4"/>
    <rect x="190" y="70" width="32" height="66" rx="4"/>
    <rect x="232" y="88" width="24" height="48" rx="4"/>
    <rect x="264" y="80" width="18" height="56" rx="4"/>
  </g>
  <circle cx="260" cy="50" r="18" fill="#fff2b5"/>
  <path d="M40 210C120 170 200 180 280 210" stroke="#f7a75b" stroke-width="8" stroke-linecap="round" opacity="0.7"/>
  <text x="32" y="132" fill="#fff" font-family="Arial, Helvetica, sans-serif" font-weight="700" font-size="26">City Rally Recap</text>
  <text x="32" y="158" fill="#fff" font-family="Arial, Helvetica, sans-serif" font-size="14" opacity="0.85">Routes completed · Trainers spotlighted</text>
</svg>
