<svg width="320" height="220" viewBox="0 0 320 220" fill="none" xmlns="http://www.w3.org/2000/svg">
  <defs>
    <linearGradient id="bg" x1="0" y1="0" x2="1" y2="1">
      <stop offset="0" stop-color="#160f2a"/>
      <stop offset="1" stop-color="#531b9c"/>
    </linearGradient>
    <linearGradient id="aura" x1="40" y1="30" x2="280" y2="200">
      <stop offset="0" stop-color="#ff3df0" stop-opacity="0.9"/>
      <stop offset="1" stop-color="#65e5ff" stop-opacity="0.4"/>
    </linearGradient>
    <radialGradient id="core" cx="0.5" cy="0.35" r="0.45">
      <stop stop-color="#fefefe"/>
      <stop offset="1" stop-color="#9ccaff"/>
    </radialGradient>
  </defs>
  <rect width="320" height="220" rx="28" fill="url(#bg)"/>
  <circle cx="160" cy="110" r="86" fill="url(#aura)" opacity="0.7"/>
  <ellipse cx="160" cy="130" rx="110" ry="40" fill="#0c0618" opacity="0.6"/>
  <path d="M160 60C175 40 210 34 224 68C235 92 222 133 200 150C190 158 176 164 160 164C144 164 130 158 120 150C98 133 85 92 96 68C110 34 145 40 160 60Z" fill="url(#core)"/>
  <path d="M120 150C108 146 90 136 80 120C70 104 70 86 76 70" stroke="#f15fff" stroke-width="12" stroke-linecap="round" opacity="0.7"/>
  <path d="M200 150C212 146 230 136 240 120C250 104 250 86 244 70" stroke="#f15fff" stroke-width="12" stroke-linecap="round" opacity="0.7"/>
  <path d="M150 104L144 126C143 130 147 134 152 134H168C173 134 177 130 176 126L170 104" stroke="#5f4bd6" stroke-width="10" stroke-linecap="round"/>
  <circle cx="140" cy="96" r="6" fill="#1c245a"/>
  <circle cx="180" cy="96" r="6" fill="#1c245a"/>
  <text x="32" y="198" fill="#d8d4ff" font-family="Arial, Helvetica, sans-serif" font-size="14" font-weight="600">Shadow Raid Preparedness</text>
</svg>
